<?xml version="1.0" encoding="utf-8"?>
<!-- Generator: Adobe Illustrator 19.0.1, SVG Export Plug-In . SVG Version: 6.00 Build 0)  -->
<svg version="1.1" id="レイヤー_1" xmlns="http://www.w3.org/2000/svg" xmlns:xlink="http://www.w3.org/1999/xlink" x="0px"
	 y="0px" width="301" height="111" viewBox="0 0 301.1 110.8" enable-background="new 0 0 301.1 110.8" xml:space="preserve">
<path fill="none" stroke="#000000" stroke-width="3" stroke-miterlimit="10" d="M9.2,57.7c0,0,3.1-1.4,6.6-6.5s6-10.5,6-10.5
	s-5.6,9.9-8,17s-4.2,11.1-1.7,13.4s6.5,1.2,9.6-2.1s8.5-8.8,11.9-13.5S41.6,41,41.6,41s-7.1,14.5-8.8,20.6
	c-1.7,6.2-2.1,9.8,0.2,10.7c2.2,0.9,6-2,11.8-8.2s12.7-14.7,16.5-18s6.5-4.8,7.8-3.5c1.3,1.2,1.8,4.5,0,9.5s-9,20.4-9,20.4
	s5.4-10.8,10.2-17c4.8-6.2,7.6-9.2,10.9-11.7c1.4-1,6.4-3,8.2-1.5c1.8,1.5,1.8,3.5,0,8.3c-1.8,4.8-4.7,10.7-5.8,14.8
	c-1.3,4.7,1.2,7.2,5,5.7c4-1.6,9.3-7.2,13.5-12.3c4.1-5.2,25.4-29.6,30-37.7c4.6-8.1,4.8-14,1-15.5c-3.8-1.5-6.9,1.7-7.8,2.8
	c-3.2,4-7.6,17.8-11.9,28.2C109.1,47.1,98,73.4,94,83.1s-7.1,17.8-3.6,20.9s8.3,1.3,10.3-2.1s3-5.4,3-11.1c0-5.7-1.4-19.1-2.3-21
	s2.3,0,5.8-0.8s6-1,10-4.2c4-3.2,13.7-15,15.8-17.2c2.2-2.2,6.5-8,6.5-8s-2.1,3.5-1.2,5.2c1,1.7,4.7,1.3,6.2,1.8s2.2,1.5,1.3,3.5
	s-7.2,10.9-8.6,13.7c-1.4,2.8-2.2,6.9-0.2,8.4c2.5,2,6.2-1.5,9-4.4c2.8-2.8,4.1-4.7,7.3-8.4c3.2-3.7,9.6-11.8,14.7-15
	c5.2-3.3,10.6-4.5,13.9-3.8c3,0.7,2,1.1,2,1.1s-3.4-2.1-8.9-0.3c-4.5,1.4-9.3,4.2-12.2,7.6s-7.3,8.2-8.9,12.2
	c-1.1,2.8-1.1,6.1,0.7,8.5s4.3,3.1,7.4,1.8s6.7-3.6,10-7.8c2.6-3.4,11.8-21.4,11.8-21.4l-1.3,2.5c0,0-6.5,12-9,19.2
	c-0.8,2.3,0.3,5.3,2.1,7.2c1.5,1.5,3.2,1.2,5.4-0.2c2.1-1.4,7.8-6.8,12-11.8c4.3-5,11.7-14.1,13.7-15.5s4.4-2.1,5.8-0.6
	c1.4,1.5,2,3.7,1.2,7.5c-0.6,2.7-10.2,21.5-10.2,21.5s8.2-15.6,12.8-21.4c4.5-5.8,8.2-9,11-9.1s4.1,0.8,4.5,2.6s0.6,7.5-0.2,10.6
	c-0.8,3.1-7.4,17.6-7.4,17.6s5.3-12.9,10.2-18.4c5.1-5.7,10.8-10.8,14-11.9c3.6-1.3,5.9,0.4,6.1,3.2c0.2,3.2-6.1,16.3-6.9,19.3
	c-0.8,3-1.8,5-0.1,6.5c1.7,1.4,4.6,0.4,6.2-1.2s5-4,7.6-7.4c2.6-3.4,6.4-5.7,9.5-6.6c3.2-1,7.1-1.8,10.5-4.5c3.2-2.6,4.6-4.9,4.2-7
	s-2-2.9-3.7-3.1c-1.6-0.2-4.3,0.5-6.4,2c-2.5,1.8-4.5,4.1-6.1,6.9c-1.5,2.5-5.5,8.7-5.5,11.4c0,2.7,0.6,7,2.6,8.8
	c1.9,1.8,4.7,1.6,7,1.1c2.3-0.5,6.3-2.4,9.9-5.5c3.2-2.8,8.6-10.3,8.6-10.3"/>
</svg>
